# xmcd
#
# Track frame offsets:
#	150
#	12756
#	25668
#	37629
#	49183
#	62347
#	75047
#	85537
#	97630
#	113535
#	126123
#	140543
#	154699
#	167376
#	180190
#	191511
#	206750
#	220588
#	233594
#	245567
#	256839
#	272260
#	288059
#	302842
#	316198
#	330103
#
# Disc length: 4569
#
# Revision: 1
# Processed by: cddbd v1.5.1PL0 Copyright (c) Steve Scherf et al.
# Submitted via: ExactAudioCopy v0.90b4
# Normalized: r0:DSETVAR1
#
DISCID=2011d71a
DTITLE=Various Artist - TAMLA Motown Gold - Disc 3
DYEAR=1900
DGENRE=
TTITLE0=Four Tops - Walk Away Renee
TTITLE1=Diana Ross and The Supremes - Reflections
TTITLE2=Jimmy Ruffin - Gonna Give Her All The Love I'
TTITLE3=Stevie Wonder - I Was Made To Love Her
TTITLE4=Martha Reeves and The Vandellas - Jimmy Mack
TTITLE5=Four Tops - If I Were A Carpenter
TTITLE6=Marvin Gaye and Tammi Terrell - Ain't Nothing Like The Real Th
TTITLE7=Diana Ross and The Supremes - In And Out Of Love
TTITLE8=The Temptations - Cloud Nine
TTITLE9=Stevie Wonder - For Once In my Life
TTITLE10=Marvin Gaye - I Heard It Through The Grapevi
TTITLE11=Diana Ross and The Supremes with - I'm Gonna Make You Love Me
TTITLE12=Stevie Wonder - I Don't Know Why I Love You
TTITLE13=Marvin Gaye and Tammi Terrell - You're All I Need To Get By
TTITLE14=Diana Ross and The Supremes with - I Second That Emotion
TTITLE15=Edwin Starr - 25 Miles
TTITLE16=Diana Ross and The Supremes - Love Child
TTITLE17=Stevie Wonder - My Cherie Amour
TTITLE18=Marvin Gaye and Tammi Terrell - The Onion Song
TTITLE19=Jnr Walker and The All Stars - What Does It Take (To Win Your
TTITLE20=Diana Ross and The Supremes - Someday We'll Be Together
TTITLE21=David Ruffin - My Whole World Ended (The Mome
TTITLE22=The Originals - Bab, I'm For Real
TTITLE23=Marvin Gaye - Too Busy Thinking About My Bab
TTITLE24=Stevie Wonder - Yester-Me, Yester-You, Yesterd
TTITLE25=Rare Earth - Get Ready
EXTD=
EXTT0=
EXTT1=
EXTT2=
EXTT3=
EXTT4=
EXTT5=
EXTT6=
EXTT7=
EXTT8=
EXTT9=
EXTT10=
EXTT11=
EXTT12=
EXTT13=
EXTT14=
EXTT15=
EXTT16=
EXTT17=
EXTT18=
EXTT19=
EXTT20=
EXTT21=
EXTT22=
EXTT23=
EXTT24=
EXTT25=
PLAYORDER=
